<svg width="75" height="75" viewBox="0 0 75 75" fill="none" xmlns="http://www.w3.org/2000/svg">
<g clip-path="url(#clip0_57_32)">
<path fill-rule="evenodd" clip-rule="evenodd" d="M0 19.6875C0 15.2732 3.72857 11.9197 8.03571 11.9197H66.9643C71.2714 11.9197 75 15.2732 75 19.6875V55.3125C75 59.7268 71.2714 63.0804 66.9643 63.0804H8.03571C3.72857 63.0804 0 59.7268 0 55.3125V19.6875ZM26.25 37.5C26.25 34.5163 27.4353 31.6549 29.545 29.5451C31.6548 27.4353 34.5163 26.25 37.5 26.25C40.4837 26.25 43.3452 27.4353 45.455 29.5451C47.5647 31.6549 48.75 34.5163 48.75 37.5C48.75 40.4837 47.5647 43.3452 45.455 45.455C43.3452 47.5648 40.4837 48.75 37.5 48.75C34.5163 48.75 31.6548 47.5648 29.545 45.455C27.4353 43.3452 26.25 40.4837 26.25 37.5ZM16.0929 37.5C16.0929 38.5685 15.6684 39.5932 14.9129 40.3487C14.1574 41.1042 13.1327 41.5286 12.0643 41.5286C10.9958 41.5286 9.97116 41.1042 9.21566 40.3487C8.46015 39.5932 8.03571 38.5685 8.03571 37.5C8.03571 36.4316 8.46015 35.4069 9.21566 34.6514C9.97116 33.8959 10.9958 33.4715 12.0643 33.4715C13.1327 33.4715 14.1574 33.8959 14.9129 34.6514C15.6684 35.4069 16.0929 36.4316 16.0929 37.5ZM62.9357 41.5286C64.0042 41.5286 65.0288 41.1042 65.7843 40.3487C66.5398 39.5932 66.9643 38.5685 66.9643 37.5C66.9643 36.4316 66.5398 35.4069 65.7843 34.6514C65.0288 33.8959 64.0042 33.4715 62.9357 33.4715C61.8673 33.4715 60.8426 33.8959 60.0871 34.6514C59.3316 35.4069 58.9071 36.4316 58.9071 37.5C58.9071 38.5685 59.3316 39.5932 60.0871 40.3487C60.8426 41.1042 61.8673 41.5286 62.9357 41.5286Z" fill="#B2B2B2"/>
</g>
<defs>
<clipPath id="clip0_57_32">
<rect width="75" height="75" fill="white"/>
</clipPath>
</defs>
</svg>
