<svg width="50" height="35" viewBox="0 0 50 35" fill="none" xmlns="http://www.w3.org/2000/svg">
<path fill-rule="evenodd" clip-rule="evenodd" d="M0 5.17857C0 2.23571 2.48571 0 5.35714 0H44.6429C47.5143 0 50 2.23571 50 5.17857V28.9286C50 31.8714 47.5143 34.1071 44.6429 34.1071H5.35714C2.48571 34.1071 0 31.8714 0 28.9286V5.17857ZM17.5 17.0536C17.5 15.0644 18.2902 13.1568 19.6967 11.7503C21.1032 10.3437 23.0109 9.55357 25 9.55357C26.9891 9.55357 28.8968 10.3437 30.3033 11.7503C31.7098 13.1568 32.5 15.0644 32.5 17.0536C32.5 19.0427 31.7098 20.9503 30.3033 22.3569C28.8968 23.7634 26.9891 24.5536 25 24.5536C23.0109 24.5536 21.1032 23.7634 19.6967 22.3569C18.2902 20.9503 17.5 19.0427 17.5 17.0536ZM10.7286 17.0536C10.7286 17.7659 10.4456 18.449 9.94194 18.9527C9.43827 19.4563 8.75515 19.7393 8.04286 19.7393C7.33056 19.7393 6.64744 19.4563 6.14377 18.9527C5.6401 18.449 5.35714 17.7659 5.35714 17.0536C5.35714 16.3413 5.6401 15.6582 6.14377 15.1545C6.64744 14.6508 7.33056 14.3679 8.04286 14.3679C8.75515 14.3679 9.43827 14.6508 9.94194 15.1545C10.4456 15.6582 10.7286 16.3413 10.7286 17.0536ZM41.9571 19.7393C42.6694 19.7393 43.3526 19.4563 43.8562 18.9527C44.3599 18.449 44.6429 17.7659 44.6429 17.0536C44.6429 16.3413 44.3599 15.6582 43.8562 15.1545C43.3526 14.6508 42.6694 14.3679 41.9571 14.3679C41.2448 14.3679 40.5617 14.6508 40.0581 15.1545C39.5544 15.6582 39.2714 16.3413 39.2714 17.0536C39.2714 17.7659 39.5544 18.449 40.0581 18.9527C40.5617 19.4563 41.2448 19.7393 41.9571 19.7393Z" fill="#6A9EEB"/>
</svg>
