<svg width="63" height="63" viewBox="0 0 63 63" fill="none" xmlns="http://www.w3.org/2000/svg">
<path d="M46.875 4.18716C51.6256 6.92994 55.5706 10.8749 58.3133 15.6255C61.0561 20.3762 62.5 25.7651 62.5 31.2507C62.5 36.7362 61.056 42.1251 58.3131 46.8757C55.5703 51.6263 51.6253 55.5712 46.8746 58.314C42.124 61.0567 36.7351 62.5005 31.2495 62.5005C25.7639 62.5004 20.3751 61.0563 15.6245 58.3135C10.8739 55.5706 6.92903 51.6255 4.18636 46.8749C1.44369 42.1242 -0.000139343 36.7352 1.00864e-08 31.2497L0.0156254 30.2372C0.190635 24.8403 1.76109 19.5808 4.57387 14.9715C7.38666 10.3622 11.3458 6.56045 16.0653 3.9368C20.7848 1.31314 26.1036 -0.0428462 31.5031 0.00103202C36.9027 0.0449102 42.1988 1.48716 46.875 4.18716ZM31.25 12.4997C30.4212 12.4997 29.6263 12.8289 29.0403 13.415C28.4542 14.001 28.125 14.7959 28.125 15.6247C25.6386 15.6247 23.254 16.6124 21.4959 18.3705C19.7377 20.1287 18.75 22.5133 18.75 24.9997C18.75 27.4861 19.7377 29.8706 21.4959 31.6288C23.254 33.3869 25.6386 34.3747 28.125 34.3747V40.6247C27.6067 40.6534 27.0893 40.5551 26.6177 40.3383C26.146 40.1216 25.7345 39.7929 25.4187 39.3809L25.2062 39.0653C24.7787 38.3758 24.0997 37.8795 23.3129 37.6816C22.5261 37.4836 21.6932 37.5994 20.9902 38.0044C20.2872 38.4095 19.7693 39.0721 19.5461 39.8521C19.3228 40.6321 19.4116 41.4683 19.7937 42.184C20.5914 43.5674 21.7291 44.724 23.0991 45.5444C24.469 46.3647 26.0258 46.8215 27.6219 46.8715H28.125C28.1243 47.6375 28.405 48.377 28.9137 48.9497C29.4224 49.5223 30.1237 49.8882 30.8844 49.9778L31.25 49.9997C32.0788 49.9997 32.8737 49.6704 33.4597 49.0844C34.0458 48.4983 34.375 47.7035 34.375 46.8747L34.925 46.859C37.3613 46.7182 39.6466 45.633 41.2954 43.8339C42.9443 42.0349 43.8266 39.6638 43.755 37.2246C43.6834 34.7853 42.6634 32.47 40.9119 30.7708C39.1604 29.0716 36.8153 28.1223 34.375 28.1247V21.8747C35.4937 21.8372 36.4719 22.3122 37.0812 23.1184L37.2937 23.434C37.7213 24.1236 38.4003 24.6198 39.1871 24.8178C39.9739 25.0157 40.8068 24.8999 41.5098 24.4949C42.2128 24.0898 42.7307 23.4272 42.9539 22.6472C43.1772 21.8672 43.0884 21.031 42.7062 20.3153C41.909 18.9314 40.7714 17.7741 39.4014 16.9532C38.0314 16.1323 36.4744 15.675 34.8781 15.6247H34.375C34.375 14.7959 34.0458 14.001 33.4597 13.415C32.8737 12.8289 32.0788 12.4997 31.25 12.4997ZM34.375 34.3747C35.2038 34.3747 35.9986 34.7039 36.5847 35.29C37.1708 35.876 37.5 36.6709 37.5 37.4997C37.5 38.3285 37.1708 39.1233 36.5847 39.7094C35.9986 40.2954 35.2038 40.6247 34.375 40.6247V34.3747ZM28.125 21.8747V28.1247C27.2962 28.1247 26.5013 27.7954 25.9153 27.2094C25.3292 26.6233 25 25.8285 25 24.9997C25 24.1709 25.3292 23.376 25.9153 22.79C26.5013 22.2039 27.2962 21.8747 28.125 21.8747Z" fill="#B2B2B2"/>
</svg>
