<svg width="42" height="42" viewBox="0 0 42 42" fill="none" xmlns="http://www.w3.org/2000/svg">
<path d="M31.25 2.79144C34.4171 4.61996 37.0471 7.24994 38.8756 10.417C40.7041 13.5841 41.6667 17.1767 41.6667 20.8338C41.6666 24.4908 40.704 28.0834 38.8754 31.2505C37.0469 34.4175 34.4169 37.0475 31.2498 38.876C28.0827 40.7044 24.49 41.667 20.833 41.667C17.176 41.6669 13.5834 40.7042 10.4163 38.8756C7.24927 37.0471 4.61935 34.417 2.79091 31.2499C0.962458 28.0828 -9.28951e-05 24.4901 6.72427e-09 20.8331L0.0104169 20.1581C0.12709 16.5602 1.17406 13.0539 3.04925 9.98101C4.92444 6.90816 7.56386 4.37363 10.7102 2.62453C13.8565 0.875428 17.4024 -0.0285641 21.0021 0.000688012C24.6018 0.0299402 28.1325 0.991438 31.25 2.79144ZM20.8333 8.33311C20.2808 8.33311 19.7509 8.5526 19.3602 8.94331C18.9695 9.33401 18.75 9.86391 18.75 10.4164C17.0924 10.4164 15.5027 11.0749 14.3306 12.247C13.1585 13.4191 12.5 15.0088 12.5 16.6664C12.5 18.324 13.1585 19.9138 14.3306 21.0859C15.5027 22.258 17.0924 22.9164 18.75 22.9164V27.0831C18.4045 27.1022 18.0595 27.0367 17.7451 26.8922C17.4307 26.7477 17.1563 26.5286 16.9458 26.2539L16.8042 26.0435C16.5191 25.5838 16.0665 25.253 15.542 25.121C15.0174 24.9891 14.4621 25.0663 13.9935 25.3363C13.5248 25.6063 13.1796 26.0481 13.0307 26.5681C12.8818 27.0881 12.9411 27.6456 13.1958 28.1227C13.7276 29.0449 14.4861 29.816 15.3994 30.3629C16.3127 30.9098 17.3506 31.2144 18.4146 31.2477H18.75C18.7496 31.7583 18.9367 32.2513 19.2758 32.6331C19.6149 33.0149 20.0825 33.2588 20.5896 33.3185L20.8333 33.3331C21.3859 33.3331 21.9158 33.1136 22.3065 32.7229C22.6972 32.3322 22.9167 31.8023 22.9167 31.2498L23.2833 31.2394C24.9075 31.1455 26.4311 30.422 27.5303 29.2226C28.6295 28.0233 29.2177 26.4426 29.17 24.8164C29.1223 23.1902 28.4423 21.6467 27.2746 20.5139C26.1069 19.3811 24.5435 18.7482 22.9167 18.7498V14.5831C23.6625 14.5581 24.3146 14.8748 24.7208 15.4123L24.8625 15.6227C25.1475 16.0824 25.6002 16.4132 26.1247 16.5452C26.6492 16.6772 27.2045 16.6 27.6732 16.3299C28.1418 16.0599 28.4871 15.6182 28.636 15.0982C28.7848 14.5782 28.7256 14.0207 28.4708 13.5435C27.9393 12.6209 27.181 11.8494 26.2676 11.3021C25.3543 10.7549 24.3163 10.45 23.2521 10.4164H22.9167C22.9167 9.86391 22.6972 9.33401 22.3065 8.94331C21.9158 8.5526 21.3859 8.33311 20.8333 8.33311ZM22.9167 22.9164C23.4692 22.9164 23.9991 23.1359 24.3898 23.5266C24.7805 23.9173 25 24.4472 25 24.9998C25 25.5523 24.7805 26.0822 24.3898 26.4729C23.9991 26.8636 23.4692 27.0831 22.9167 27.0831V22.9164ZM18.75 14.5831V18.7498C18.1975 18.7498 17.6676 18.5303 17.2769 18.1396C16.8862 17.7489 16.6667 17.219 16.6667 16.6664C16.6667 16.1139 16.8862 15.584 17.2769 15.1933C17.6676 14.8026 18.1975 14.5831 18.75 14.5831Z" fill="#6A9EEB"/>
</svg>
