<svg width="100" height="100" viewBox="0 0 100 100" fill="none" xmlns="http://www.w3.org/2000/svg">
<rect x="3.5" y="3.5" width="93" height="93" rx="46.5" stroke="#6A9EEB" stroke-width="7"/>
<path fill-rule="evenodd" clip-rule="evenodd" d="M43.75 35.4167C43.75 34.3116 44.189 33.2518 44.9704 32.4704C45.7518 31.689 46.8116 31.25 47.9167 31.25H52.0833C53.1884 31.25 54.2482 31.689 55.0296 32.4704C55.811 33.2518 56.25 34.3116 56.25 35.4167V43.75H64.5833C65.6884 43.75 66.7482 44.189 67.5296 44.9704C68.311 45.7518 68.75 46.8116 68.75 47.9167V52.0833C68.75 53.1884 68.311 54.2482 67.5296 55.0296C66.7482 55.811 65.6884 56.25 64.5833 56.25H56.25V64.5833C56.25 65.6884 55.811 66.7482 55.0296 67.5296C54.2482 68.311 53.1884 68.75 52.0833 68.75H47.9167C46.8116 68.75 45.7518 68.311 44.9704 67.5296C44.189 66.7482 43.75 65.6884 43.75 64.5833V56.25H35.4167C34.3116 56.25 33.2518 55.811 32.4704 55.0296C31.689 54.2482 31.25 53.1884 31.25 52.0833V47.9167C31.25 46.8116 31.689 45.7518 32.4704 44.9704C33.2518 44.189 34.3116 43.75 35.4167 43.75H43.75V35.4167Z" fill="#6A9EEB"/>
</svg>
