<svg width="42" height="42" viewBox="0 0 42 42" fill="none" xmlns="http://www.w3.org/2000/svg">
<path fill-rule="evenodd" clip-rule="evenodd" d="M3.05 3.05C0 6.10417 0 11.0125 0 20.8333C0 30.6542 0 35.5646 3.05 38.6146C6.10417 41.6667 11.0125 41.6667 20.8333 41.6667C30.6542 41.6667 35.5646 41.6667 38.6146 38.6146C41.6667 35.5667 41.6667 30.6542 41.6667 20.8333C41.6667 11.0125 41.6667 6.10208 38.6146 3.05C35.5667 0 30.6542 0 20.8333 0C11.0125 0 6.10208 0 3.05 3.05ZM17.8 11.4938C17.9414 11.3451 18.0522 11.17 18.126 10.9785C18.1998 10.7869 18.2351 10.5828 18.23 10.3776C18.2248 10.1725 18.1794 9.97033 18.0961 9.78275C18.0129 9.59517 17.8935 9.42582 17.7448 9.28438C17.5961 9.14293 17.421 9.03216 17.2295 8.95838C17.038 8.88461 16.8338 8.84928 16.6287 8.8544C16.4235 8.85953 16.2214 8.90501 16.0338 8.98826C15.8462 9.07151 15.6769 9.19089 15.5354 9.33958L10.7146 14.4021L9.46458 13.0896C9.32467 12.935 9.15522 12.8099 8.96623 12.7218C8.77723 12.6337 8.57251 12.5843 8.36413 12.5765C8.15574 12.5688 7.94792 12.6028 7.75289 12.6766C7.55787 12.7504 7.37959 12.8626 7.22857 13.0063C7.07755 13.1501 6.95684 13.3227 6.87355 13.5139C6.79026 13.705 6.74608 13.911 6.74361 14.1195C6.74114 14.328 6.78044 14.5349 6.85918 14.728C6.93792 14.9211 7.05451 15.0964 7.20208 15.2438L9.58333 17.7438C9.72926 17.8969 9.90477 18.0189 10.0992 18.1022C10.2937 18.1855 10.503 18.2284 10.7146 18.2284C10.9261 18.2284 11.1355 18.1855 11.3299 18.1022C11.5244 18.0189 11.6999 17.8969 11.8458 17.7438L17.8 11.4938ZM22.9167 13.0208C22.5023 13.0208 22.1048 13.1855 21.8118 13.4785C21.5188 13.7715 21.3542 14.1689 21.3542 14.5833C21.3542 14.9977 21.5188 15.3952 21.8118 15.6882C22.1048 15.9812 22.5023 16.1458 22.9167 16.1458H33.3333C33.7477 16.1458 34.1452 15.9812 34.4382 15.6882C34.7312 15.3952 34.8958 14.9977 34.8958 14.5833C34.8958 14.1689 34.7312 13.7715 34.4382 13.4785C34.1452 13.1855 33.7477 13.0208 33.3333 13.0208H22.9167ZM17.7979 26.0771C17.9455 25.9298 18.0621 25.7544 18.1408 25.5613C18.2196 25.3682 18.2589 25.1613 18.2564 24.9528C18.2539 24.7443 18.2097 24.5384 18.1265 24.3472C18.0432 24.156 17.9225 23.9835 17.7714 23.8397C17.6204 23.6959 17.4421 23.5838 17.2471 23.51C17.0521 23.4362 16.8443 23.4021 16.6359 23.4099C16.4275 23.4176 16.2228 23.467 16.0338 23.5551C15.8448 23.6432 15.6753 23.7683 15.5354 23.9229L10.7146 28.9854L9.46458 27.6729C9.32467 27.5183 9.15522 27.3932 8.96623 27.3051C8.77723 27.217 8.57251 27.1676 8.36413 27.1599C8.15574 27.1521 7.94792 27.1862 7.75289 27.26C7.55787 27.3338 7.37959 27.4459 7.22857 27.5897C7.07755 27.7335 6.95684 27.906 6.87355 28.0972C6.79026 28.2884 6.74608 28.4943 6.74361 28.7028C6.74114 28.9113 6.78044 29.1182 6.85918 29.3113C6.93792 29.5044 7.05451 29.6798 7.20208 29.8271L9.58333 32.3271C9.72926 32.4803 9.90477 32.6022 10.0992 32.6855C10.2937 32.7688 10.503 32.8118 10.7146 32.8118C10.9261 32.8118 11.1355 32.7688 11.3299 32.6855C11.5244 32.6022 11.6999 32.4803 11.8458 32.3271L17.7979 26.0771ZM22.9167 27.6042C22.5023 27.6042 22.1048 27.7688 21.8118 28.0618C21.5188 28.3548 21.3542 28.7523 21.3542 29.1667C21.3542 29.5811 21.5188 29.9785 21.8118 30.2715C22.1048 30.5646 22.5023 30.7292 22.9167 30.7292H33.3333C33.7477 30.7292 34.1452 30.5646 34.4382 30.2715C34.7312 29.9785 34.8958 29.5811 34.8958 29.1667C34.8958 28.7523 34.7312 28.3548 34.4382 28.0618C34.1452 27.7688 33.7477 27.6042 33.3333 27.6042H22.9167Z" fill="#6A9EEB"/>
</svg>
