<svg width="75" height="75" viewBox="0 0 75 75" fill="none" xmlns="http://www.w3.org/2000/svg">
<path fill-rule="evenodd" clip-rule="evenodd" d="M10.825 10.825C6.25 15.4062 6.25 22.7687 6.25 37.5C6.25 52.2313 6.25 59.5969 10.825 64.1719C15.4062 68.75 22.7687 68.75 37.5 68.75C52.2313 68.75 59.5969 68.75 64.1719 64.1719C68.75 59.6 68.75 52.2313 68.75 37.5C68.75 22.7687 68.75 15.4031 64.1719 10.825C59.6 6.25 52.2313 6.25 37.5 6.25C22.7687 6.25 15.4031 6.25 10.825 10.825ZM32.95 23.4906C33.1622 23.2676 33.3283 23.0049 33.439 22.7177C33.5496 22.4304 33.6026 22.1242 33.595 21.8164C33.5873 21.5087 33.519 21.2055 33.3942 20.9241C33.2693 20.6428 33.0902 20.3887 32.8672 20.1766C32.6441 19.9644 32.3815 19.7982 32.0942 19.6876C31.807 19.5769 31.5007 19.5239 31.193 19.5316C30.8853 19.5393 30.5821 19.6075 30.3007 19.7324C30.0193 19.8573 29.7653 20.0363 29.5531 20.2594L22.3219 27.8531L20.4469 25.8844C20.237 25.6524 19.9828 25.4649 19.6993 25.3327C19.4158 25.2005 19.1088 25.1264 18.7962 25.1148C18.4836 25.1032 18.1719 25.1542 17.8793 25.2649C17.5868 25.3757 17.3194 25.5438 17.0929 25.7595C16.8663 25.9752 16.6853 26.2341 16.5603 26.5208C16.4354 26.8076 16.3691 27.1164 16.3654 27.4292C16.3617 27.742 16.4207 28.0523 16.5388 28.3419C16.6569 28.6316 16.8318 28.8946 17.0531 29.1156L20.625 32.8656C20.8439 33.0954 21.1072 33.2783 21.3988 33.4032C21.6905 33.5282 22.0045 33.5927 22.3219 33.5927C22.6392 33.5927 22.9532 33.5282 23.2449 33.4032C23.5366 33.2783 23.7999 33.0954 24.0187 32.8656L32.95 23.4906ZM40.625 25.7812C40.0034 25.7812 39.4073 26.0282 38.9677 26.4677C38.5282 26.9073 38.2812 27.5034 38.2812 28.125C38.2812 28.7466 38.5282 29.3427 38.9677 29.7823C39.4073 30.2218 40.0034 30.4688 40.625 30.4688H56.25C56.8716 30.4688 57.4677 30.2218 57.9073 29.7823C58.3468 29.3427 58.5938 28.7466 58.5938 28.125C58.5938 27.5034 58.3468 26.9073 57.9073 26.4677C57.4677 26.0282 56.8716 25.7812 56.25 25.7812H40.625ZM32.9469 45.3656C33.1682 45.1446 33.3431 44.8816 33.4612 44.5919C33.5793 44.3023 33.6383 43.992 33.6346 43.6792C33.6309 43.3664 33.5646 43.0576 33.4397 42.7708C33.3147 42.4841 33.1337 42.2252 32.9071 42.0095C32.6806 41.7938 32.4132 41.6257 32.1207 41.5149C31.8281 41.4042 31.5164 41.3532 31.2038 41.3648C30.8912 41.3764 30.5842 41.4505 30.3007 41.5827C30.0172 41.7149 29.763 41.9024 29.5531 42.1344L22.3219 49.7281L20.4469 47.7594C20.237 47.5274 19.9828 47.3399 19.6993 47.2077C19.4158 47.0755 19.1088 47.0014 18.7962 46.9898C18.4836 46.9782 18.1719 47.0292 17.8793 47.1399C17.5868 47.2507 17.3194 47.4188 17.0929 47.6345C16.8663 47.8502 16.6853 48.1091 16.5603 48.3958C16.4354 48.6826 16.3691 48.9914 16.3654 49.3042C16.3617 49.617 16.4207 49.9273 16.5388 50.2169C16.6569 50.5066 16.8318 50.7696 17.0531 50.9906L20.625 54.7406C20.8439 54.9704 21.1072 55.1533 21.3988 55.2782C21.6905 55.4032 22.0045 55.4677 22.3219 55.4677C22.6392 55.4677 22.9532 55.4032 23.2449 55.2782C23.5366 55.1533 23.7999 54.9704 24.0187 54.7406L32.9469 45.3656ZM40.625 47.6562C40.0034 47.6562 39.4073 47.9032 38.9677 48.3427C38.5282 48.7823 38.2812 49.3784 38.2812 50C38.2812 50.6216 38.5282 51.2177 38.9677 51.6573C39.4073 52.0968 40.0034 52.3438 40.625 52.3438H56.25C56.8716 52.3438 57.4677 52.0968 57.9073 51.6573C58.3468 51.2177 58.5938 50.6216 58.5938 50C58.5938 49.3784 58.3468 48.7823 57.9073 48.3427C57.4677 47.9032 56.8716 47.6562 56.25 47.6562H40.625Z" fill="#B2B2B2"/>
</svg>
